<?xml version="1.0" encoding="UTF-8"?>
<svg id="_레이어_1" data-name="레이어_1" xmlns="http://www.w3.org/2000/svg" version="1.1" viewBox="0 0 841.33 705.33">
  <!-- Generator: Adobe Illustrator 29.3.1, SVG Export Plug-In . SVG Version: 2.1.0 Build 151)  -->
  <defs>
    <style>
      .st0 {
        fill: #007ac6;
      }

      .st1 {
        fill: #0a73b9;
        font-family: SUIT-Heavy-KSCpc-EUC-H, SUIT;
        font-size: 120px;
        font-weight: 800;
      }
    </style>
  </defs>
  <g id="_레이어_11" data-name="레이어_1">
    <g>
      <path class="st0" d="M402.59,161.15h-121.83c-2.67,0-5.22-.46-7.61-1.26l18.26,19.51,9.86-.07,8.75,9.1-10.09.07,17.57,18.78,16.17-.11,8.75,9.1-16.4.11,109.87,117.37h124.26c1.5,0,2.97.15,4.39.42l-17.46-18.65-6.78.04-8.68-9.1,6.94-.05-19.5-20.83-14.84.1-8.68-9.1,15-.1-107.95-115.32ZM308.17,168.18l25.49-.17,8.75,9.1-25.56.17-8.68-9.1ZM318.69,197.89l-8.68-9.1,25.49-.17,8.75,9.1-25.56.17ZM352.93,207.16l-8.68-9.1,25.49-.17,8.75,9.1-25.56.17ZM504.21,324.81l-8.68-9.1,25.49-.17,8.75,9.1-25.56.17ZM522.86,297.01l8.75,9.1-25.56.17-8.68-9.1,25.49-.17ZM497.37,296.81l-25.56.17-8.68-9.1,25.49-.17,8.75,9.1Z"/>
      <path class="st0" d="M661.58,80.91c-30.73,1.44-33.07,4.61-35.84,22.09-2.09-13.24-3.94-18.28-18.07-20.56-30.82-1.02-63.29-1.57-93.29-1.56v-1.11c25.69.09,57.69-.55,83.51-1.23,3.19-.09,6.38-.2,9.57-.3,11.17-1.77,14.76-5.22,16.79-12.95h-261.28c-46.31,0-85.52,26.03-98.61,61.89-.05.11-.1.24-.13.36-.16.47-.31.93-.49,1.4,0,.02-.03.04-.03.07-.47,1.55-.7,3.17-.7,4.84,0,10.32,9.34,18.77,21.23,19.53h277.87c46.34,0,85.52-26.03,98.61-61.89.05-.11.08-.2.1-.31.16-.44.31-.91.49-1.38.03-.04.03-.09.03-.13.47-1.53.7-3.13.7-4.77,0-1.36-.16-2.68-.47-3.96Z"/>
      <path class="st0" d="M661.22,79.72c-2.65-8.32-11.54-14.44-22.15-14.44h-11.84c2.84,10.8,8.71,13.24,33.99,14.44Z"/>
      <path class="st0" d="M179.68,412.82c1.87,8.63,10.36,15.27,20.84,15.94h6.89c-2.45-11.29-6.87-14.49-27.73-15.94Z"/>
      <path class="st0" d="M555.35,340.69h-276.1c-46.31,0-85.52,26.03-98.61,61.89-.05.11-.1.24-.13.36-.16.47-.31.93-.49,1.4,0,.02-.03.04-.03.07-.47,1.55-.7,3.17-.7,4.84,0,.55.04,1.1.09,1.64,24.34-1.65,26.53-5.6,29.08-21.7,2.09,13.24,3.94,18.28,18.07,20.56,30.82,1.02,63.29,1.57,93.29,1.56v1.11c-25.69-.09-57.69.55-83.51,1.23-3.19.09-6.38.2-9.57.3-12.03,1.91-15.27,5.76-17.24,14.83h268.89c46.34,0,85.52-26.03,98.61-61.89.05-.11.08-.2.1-.31.16-.44.31-.91.49-1.38.03-.04.03-.09.03-.13.47-1.53.7-3.13.7-4.77,0-10.83-10.28-19.59-22.97-19.59Z"/>
    </g>
  </g>
  <text class="st1" transform="translate(58.21 611.98)"><tspan x="0" y="0">Smart Shine</tspan></text>
</svg>